<svg width="65" height="65" viewBox="0 0 65 65" fill="none" xmlns="http://www.w3.org/2000/svg">
<path fill-rule="evenodd" clip-rule="evenodd" d="M40.2341 0.507377C41.7609 0.519885 43.15 0.607444 43.8007 0.732527C44.3889 0.832594 45.2524 1.00771 45.7405 1.12029C46.2286 1.23286 47.1547 1.49554 47.8054 1.70818C48.4562 1.92082 49.7327 2.43366 50.6212 2.87145C51.5098 3.29674 52.6736 3.92215 53.1867 4.25988C53.6998 4.5851 54.4883 5.13546 54.9388 5.4857C55.3893 5.83593 56.1652 6.48637 56.6783 6.93667C57.1914 7.38697 58.0049 8.23753 58.5055 8.82542C58.9935 9.41332 59.7695 10.389 60.2075 11.0144C60.6455 11.6398 61.3964 12.9282 61.897 13.8913C62.385 14.8544 62.9857 16.2679 63.236 17.0184C63.4863 17.7814 63.7741 18.732 63.8743 19.1448C63.9744 19.5576 64.1621 20.5082 64.2873 21.2712C64.4249 22.2219 64.5 23.3851 64.5 25.0237C64.5 26.7124 64.4374 27.7631 64.2873 28.6511C64.1621 29.3391 63.9243 30.4649 63.7366 31.1528C63.5614 31.8408 63.2235 32.9165 62.9857 33.5294C62.7479 34.1423 62.1973 35.3556 61.7468 36.2187C61.3088 37.0818 60.5829 38.2701 60.1574 38.8705C59.7319 39.4709 58.9685 40.434 58.4804 41.0219C57.9799 41.6098 57.0413 42.5479 56.4155 43.1108C55.7773 43.6612 54.7386 44.4742 54.1253 44.912C53.5121 45.3373 52.5485 45.9502 51.9978 46.2629C51.4472 46.5631 50.4085 47.0759 49.6826 47.3886C48.9568 47.6888 47.8555 48.1016 47.2423 48.2892C46.6291 48.4769 45.6029 48.727 44.9896 48.8521C44.3764 48.9897 43.3127 49.1523 42.6494 49.2149C41.9736 49.2899 40.7847 49.3525 40.0213 49.3399C39.2454 49.3399 38.019 49.2649 35.9791 49.0147L25.7171 59.234H25.1789C24.7534 59.234 24.5782 59.159 24.2779 58.8588C24.0151 58.5961 23.9024 58.3585 23.9024 58.0708C23.9024 57.8206 24.0276 57.4829 24.2653 57.1702C24.4656 56.895 26.493 54.8061 28.7706 52.5421C31.0483 50.2781 32.913 48.3893 32.913 48.3518C32.913 48.3143 32.5375 48.1517 32.0745 47.989C31.5989 47.8264 30.6854 47.4512 30.0346 47.1635C29.3838 46.8633 28.3952 46.363 27.8445 46.0377C27.2939 45.7125 26.4804 45.1872 26.0299 44.8745C25.5794 44.5618 24.7034 43.8738 24.0901 43.3485C23.4769 42.8106 22.6009 41.96 22.1504 41.4597C21.6998 40.9469 21.0991 40.2464 20.8238 39.9087C20.536 39.5584 20.0354 38.858 19.685 38.3451C19.3471 37.8323 18.7589 36.8566 17.7077 34.9428L11.3878 41.2721C5.29312 47.3636 5.05534 47.6013 4.5923 47.6013C4.2836 47.6013 4.01245 47.5054 3.77884 47.3136C3.59112 47.151 3.4034 46.8633 3.34083 46.6882C3.29077 46.5006 3.3158 46.2004 3.37837 46.0002C3.45346 45.8126 6.49453 42.673 16.7816 32.4037L16.4687 31.1528C16.2935 30.4649 16.0557 29.3641 15.9431 28.7137C15.7804 27.8506 15.7178 26.8499 15.7178 25.0863C15.7053 23.6603 15.7804 22.1843 15.868 21.5214C15.9681 20.9085 16.1558 19.9453 16.281 19.395C16.4187 18.8446 16.6815 17.944 16.8567 17.3936C17.0319 16.8433 17.3948 15.8801 17.6451 15.2672C17.9079 14.6418 18.396 13.6662 18.7214 13.0783C19.0342 12.4904 19.5348 11.6773 19.8101 11.2646C20.0855 10.8518 20.7738 9.95118 21.3369 9.26322C21.9001 8.57526 22.726 7.67466 23.1641 7.26188C23.6021 6.84911 24.4406 6.13613 25.0287 5.68583C25.6169 5.22302 26.493 4.59761 26.9685 4.2849C27.4441 3.9847 28.4578 3.40931 29.2212 3.03406C29.9846 2.65881 31.2485 2.12095 32.037 1.84577C32.8254 1.57059 34.0393 1.23286 34.7276 1.08276C35.4159 0.932661 36.367 0.732527 36.8551 0.644969C37.4683 0.519885 38.4695 0.48236 40.2341 0.507377V0.507377ZM35.7288 3.3968C35.1781 3.50938 34.6525 3.63446 34.5649 3.6845C34.4773 3.72202 35.5536 4.46001 37.2305 5.47319L40.0463 7.19934C43.8758 4.47252 45.0021 3.64697 45.0272 3.59694C45.0397 3.5469 44.6768 3.43433 44.2137 3.34677C43.7382 3.25921 42.8872 3.13413 42.299 3.07159C41.7108 2.99654 40.647 2.95901 39.9212 2.95901C39.1953 2.97152 38.1817 3.02155 37.6686 3.0841C37.1555 3.14664 36.2794 3.28423 35.7288 3.3968ZM41.4855 9.27573L41.423 16.1428L47.6177 20.6708C54.4132 19.1698 54.6259 19.1073 54.7135 18.8196C54.7636 18.657 55.0389 16.5181 55.3142 14.0789L55.8148 9.63847C54.8887 8.70034 54.0878 8.02489 53.437 7.52456C52.7863 7.02422 51.8226 6.36128 51.3095 6.06108C50.7964 5.74837 49.9204 5.28556 49.3698 5.02289C48.8191 4.77272 48.281 4.57259 48.1809 4.57259C48.0808 4.5851 46.5289 5.6358 44.7393 6.92416L41.4855 9.27573ZM28.1574 6.52389C27.8445 6.72402 27.1437 7.23687 26.5931 7.66215C26.0424 8.08743 25.2415 8.80041 24.8035 9.22569L24.0151 10.0262C25.1163 17.0059 25.4417 19.0447 25.4542 19.0573C25.4668 19.0698 26.956 19.4325 28.7831 19.8453C30.6103 20.2581 32.2122 20.6083 32.3498 20.6208C32.5 20.6333 33.8266 19.7577 35.6912 18.3943L38.7949 16.1553V9.40081C33.0256 5.86095 31.3236 4.83526 31.2861 4.83526C31.2485 4.83526 30.6603 5.13546 29.972 5.49821C29.2837 5.84844 28.4703 6.31125 28.1574 6.52389ZM57.4292 19.9328C57.5669 20.1205 58.6306 21.2337 59.807 22.4095C60.9834 23.5728 61.972 24.4984 62.0096 24.4734C62.0596 24.4358 62.0221 23.7354 61.947 22.9098C61.8719 22.0843 61.6967 20.921 61.5716 20.3456C61.4464 19.7577 61.1461 18.657 60.8958 17.9065C60.633 17.1435 60.1324 15.9302 59.7695 15.2172C59.419 14.4917 58.9059 13.5786 58.6557 13.1783C58.4054 12.7906 58.1426 12.4654 58.0925 12.4654C58.0424 12.4654 57.8172 14.0664 57.5919 16.0302C57.1914 19.5701 57.1914 19.5951 57.4292 19.9328V19.9328ZM20.3733 15.3423C20.0229 16.0552 19.5473 17.181 19.3221 17.8439C19.1093 18.4944 18.809 19.5576 18.6713 20.2205C18.5336 20.871 18.3459 21.9717 18.2708 22.6597C18.1957 23.3476 18.1457 24.0731 18.1707 24.2607C18.2083 24.5984 18.3584 24.4734 20.6111 22.1343L23.0014 19.6577C22.1504 14.4167 21.8876 12.8781 21.8625 12.8531C21.8375 12.8281 21.6373 13.0783 21.412 13.416C21.1993 13.7537 20.7237 14.6168 20.3733 15.3423V15.3423ZM34.3772 22.472C34.3397 22.497 34.7902 24.0481 35.4034 25.9118L36.4922 29.2891L43.613 29.3641C45.2399 24.4483 45.7155 22.8973 45.728 22.7347C45.7405 22.4845 45.3025 22.1093 42.9247 20.3831C41.3729 19.2574 40.0839 18.3443 40.0463 18.3443C40.0088 18.3443 38.7323 19.2699 37.2055 20.3831C35.6912 21.4964 34.4022 22.4345 34.3772 22.472V22.472ZM18.3334 27.9632C18.6087 29.3766 18.834 30.3148 19.0217 30.9777C19.2094 31.6281 19.4847 32.4662 19.6349 32.854C19.7851 33.2292 20.123 33.9797 20.3733 34.5176C20.6236 35.0429 20.9239 35.5057 21.0241 35.5432C21.1242 35.5683 23.0139 35.931 25.2165 36.3563C27.419 36.7691 29.3338 37.1443 29.4715 37.1818C29.6842 37.2444 30.0596 36.7315 31.9494 33.8671C33.1633 32.0034 34.1645 30.4148 34.1645 30.3523C34.1645 30.2772 33.6513 28.6386 33.0256 26.6873C32.3874 24.7485 31.8743 23.1475 31.8618 23.135C31.8618 23.1225 30.2599 22.7472 28.3076 22.3094L24.7659 21.5089L18.3334 27.9632ZM51.8727 22.3094C49.9454 22.7472 48.3686 23.11 48.3561 23.135C48.3436 23.1475 47.818 24.736 47.1922 26.6623C46.5665 28.5886 46.0534 30.2272 46.0534 30.3148C46.0534 30.4023 46.992 31.9283 48.1433 33.692C49.2822 35.4682 50.2833 36.9817 50.3584 37.0693C50.4711 37.1818 51.4597 37.0442 54.8136 36.4063C57.1914 35.9685 59.1813 35.6058 59.2313 35.6058C59.2814 35.6058 59.5692 35.0804 59.8821 34.4425C60.1824 33.8046 60.658 32.6163 60.9333 31.7907C61.2086 30.9652 61.5215 29.7894 61.6216 29.189L61.8219 28.1008C57.3792 23.4977 55.9275 22.0092 55.7272 21.8341L55.3643 21.5089L51.8727 22.3094ZM34.4898 34.5551C33.5262 36.0436 32.5375 37.5821 32.2873 37.9699L31.8367 38.6703L36.3921 46.5506C38.1191 46.7757 39.2955 46.8383 40.1214 46.8383C40.9474 46.8383 42.1238 46.7757 42.7245 46.7007L43.8383 46.5506C47.3048 40.5466 48.2935 38.7079 48.281 38.6078C48.256 38.5077 47.2798 36.9442 46.116 35.143L44.001 31.8658L36.2419 31.8533L34.4898 34.5551ZM23.8524 39.6335C24.3029 40.1338 25.1038 40.9218 25.6294 41.3972C26.1676 41.86 27.1938 42.648 27.9196 43.1233C28.633 43.6111 29.8469 44.3116 30.6103 44.6743C31.3612 45.0371 32.1621 45.3873 32.3874 45.4624C32.7127 45.5749 32.8004 45.5749 32.7878 45.4499C32.7878 45.3623 32.0745 44.0614 31.1985 42.5604C30.3224 41.0469 29.5465 39.7961 29.484 39.7586C29.4089 39.721 27.9572 39.4208 26.2427 39.0831C24.5282 38.7454 23.114 38.4827 23.089 38.4827C23.0514 38.4827 23.0389 38.5327 23.0389 38.6078C23.0389 38.6703 23.4018 39.1331 23.8524 39.6335ZM50.6212 39.7711C50.6212 39.7836 49.8704 41.0844 48.9568 42.673C48.0557 44.2491 47.3299 45.5624 47.3424 45.5749C47.3674 45.6 47.8305 45.4373 48.3811 45.2247C48.9318 45.0121 49.8578 44.5868 50.446 44.2741C51.0217 43.9614 51.8477 43.4735 52.2607 43.1984C52.6736 42.9107 53.2618 42.4854 53.5747 42.2477C53.8751 41.9976 54.4132 41.5472 54.7636 41.2345C55.1015 40.9218 55.7898 40.2339 56.2904 39.696C56.791 39.1707 57.204 38.6703 57.204 38.6078C57.204 38.5327 57.1539 38.4827 57.1038 38.4952C57.0538 38.5077 55.577 38.7829 53.825 39.1331C52.0604 39.4709 50.6212 39.7586 50.6212 39.7711V39.7711ZM18.7839 45.1747C18.9466 45.2122 19.2219 45.3248 19.3721 45.4248C19.5348 45.5249 19.71 45.8001 19.7851 46.0503C19.8727 46.3755 19.8602 46.5756 19.7225 46.8883C19.6224 47.1135 15.6678 51.1537 2.32714 64.4876L1.78901 64.5001C1.33848 64.5001 1.20082 64.4375 0.887955 64.0623C0.662691 63.8121 0.512515 63.4744 0.5 63.2742C0.5 63.0866 0.662691 62.7114 0.862925 62.4362C1.07567 62.161 4.94271 58.2334 9.47301 53.7179C14.0033 49.1898 17.8829 45.4123 18.0956 45.2998C18.3084 45.1872 18.5962 45.1371 18.7839 45.1747V45.1747ZM21.3119 60.6225C21.437 60.6225 21.6873 60.6975 21.875 60.7851C22.0628 60.8852 22.288 61.1103 22.3756 61.2854C22.4632 61.473 22.5383 61.7357 22.5383 61.8733C22.5383 62.0109 22.4632 62.2736 22.3631 62.4612C22.2755 62.6488 22.0252 62.8865 21.8375 62.974C21.6373 63.0616 21.2994 63.1116 21.0991 63.0741C20.8864 63.0241 20.5735 62.849 20.4108 62.6738C20.1856 62.4487 20.098 62.211 20.098 61.8733C20.098 61.5981 20.1856 61.2729 20.3232 61.1103C20.4484 60.9602 20.6736 60.7851 20.8238 60.7351C20.974 60.685 21.1993 60.635 21.3119 60.6225V60.6225Z" fill="white" stroke="white" stroke-opacity="0.22"/>
</svg>
